<svg xmlns="http://www.w3.org/2000/svg" viewBox="0 0 233.75 232.82"><defs><style>.cls-1{fill:#ffc600;}.cls-2{fill:#1861c5;}</style></defs><title>Asset 1</title><g id="Layer_2" data-name="Layer 2"><g id="Layer_1-2" data-name="Layer 1"><path class="cls-1" d="M116.52,105A111.24,111.24,0,0,1,81.9,99.54a42.27,42.27,0,0,0,69.23,0A111.24,111.24,0,0,1,116.52,105Z"/><path class="cls-2" d="M175.35,0h-117a7.68,7.68,0,0,0-7.66,7.66V125a7.68,7.68,0,0,0,7.66,7.66h5.48v9.08c0,.23,0,.46,0,.69a9.52,9.52,0,0,0,19,0c0-.23,0-.46,0-.69v-9.08h68.08v9.08c0,.23,0,.46,0,.69a9.52,9.52,0,0,0,19,0c0-.23,0-.46,0-.69v-9.08h5.48A7.68,7.68,0,0,0,183,125V7.66A7.68,7.68,0,0,0,175.35,0ZM116.79,117.41A40.91,40.91,0,0,1,83.25,100a107.82,107.82,0,0,0,33.55,5.32A107.82,107.82,0,0,0,150.34,100,40.91,40.91,0,0,1,116.79,117.41Zm53.38-79.17a9.51,9.51,0,1,0,0,19V81.58a1.1,1.1,0,0,1-1.12,1.08H65a1.1,1.1,0,0,1-1.12-1.08V57.26a9.51,9.51,0,0,0,0-19V13.91A1.1,1.1,0,0,1,65,12.84H169.06a1.1,1.1,0,0,1,1.12,1.08Z"/><path class="cls-1" d="M180.85,225.73a66.57,66.57,0,0,1-20.65-3.65,25.21,25.21,0,0,0,41.29,0A66.57,66.57,0,0,1,180.85,225.73Z"/><polygon class="cls-2" points="130.21 176.1 121.97 176.1 112.37 190.25 102.71 176.1 94.54 176.1 108.37 196 94.57 216.49 102.65 216.49 112.37 201.79 122.1 216.49 130.18 216.49 116.38 196 130.21 176.1"/><path class="cls-2" d="M86,204.46a12.29,12.29,0,0,1-3.87,3.88,13.91,13.91,0,0,1-7.59,2.19,13.35,13.35,0,0,1-9.27-3.76A12.62,12.62,0,0,1,61,198.73H94.74l.11-2.2A20.33,20.33,0,0,0,88.93,182a19.86,19.86,0,0,0-28.71-.14,19.94,19.94,0,0,0-5.89,14.37,20.17,20.17,0,0,0,31.92,16.53A20.13,20.13,0,0,0,93,204.46ZM65.53,185.13a13.7,13.7,0,0,1,18.09,0,14.34,14.34,0,0,1,4.49,7.64h-27A14.18,14.18,0,0,1,65.53,185.13Z"/><path class="cls-2" d="M161.53,204.46a12.29,12.29,0,0,1-3.87,3.88,13.91,13.91,0,0,1-7.59,2.19,13.35,13.35,0,0,1-9.27-3.76,12.62,12.62,0,0,1-4.28-8.05H170.3l.11-2.2A20.33,20.33,0,0,0,164.49,182a19.86,19.86,0,0,0-28.71-.14,19.94,19.94,0,0,0-5.89,14.37,20.17,20.17,0,0,0,31.92,16.53,20.13,20.13,0,0,0,6.76-8.26Zm-20.44-19.34a13.7,13.7,0,0,1,18.09,0,14.34,14.34,0,0,1,4.49,7.64h-27A14.18,14.18,0,0,1,141.09,185.13Z"/><path class="cls-2" d="M224.87,204.46a12.29,12.29,0,0,1-3.87,3.88,13.91,13.91,0,0,1-7.59,2.19,13.35,13.35,0,0,1-9.27-3.76,12.62,12.62,0,0,1-4.28-8.05h33.78l.11-2.2A20.33,20.33,0,0,0,227.83,182a19.86,19.86,0,0,0-28.71-.14,19.94,19.94,0,0,0-5.89,14.37,20.17,20.17,0,0,0,31.92,16.53,20.13,20.13,0,0,0,6.76-8.26Zm-20.44-19.34a13.7,13.7,0,0,1,18.09,0,14.34,14.34,0,0,1,4.49,7.64H200A14.18,14.18,0,0,1,204.43,185.13Z"/><path class="cls-2" d="M194.25,175.62a17.5,17.5,0,0,0-6.78,1.63,9.9,9.9,0,0,0-3.1,2.65V176H177.7v40.43h6.67V193.29c0-5.94,2.62-9.36,8-10.42l2.88-7.2v-.13Z"/><polygon class="cls-2" points="21.7 229.85 21.92 229.85 32.61 229.85 35.72 220.85 27.13 220.85 8.57 176.85 0 176.85 21.7 229.85"/><polygon class="cls-2" points="45.48 176.01 29.37 216.19 37.98 216.19 54.05 176.01 45.48 176.01"/></g></g></svg>